<svg xmlns="http://www.w3.org/2000/svg" xmlns:xlink="http://www.w3.org/1999/xlink" version="1.1" class="clearos-svg clearfoundation app-vendor-clearfoundation app-free app-category-network app-sub-category-infrastructure" viewBox="0 0 400 400" preserveAspectRatio="xMinYMin">
<g>
	<path fill="#686868" d="M2.628,144.531h22.517v64.771c0,19.184,6.116,31.69,23.35,31.69c17.237,0,23.35-12.506,23.35-31.69v-64.771
		h22.517v71.72c0,30.024-16.958,42.537-45.87,42.537c-28.633,0-45.868-12.511-45.868-42.537v-71.72H2.628z"/>
	<path fill="#686868" d="M139.399,162.046h7.783c11.675,0,21.405,4.726,21.405,17.791c0,12.787-10.287,16.679-21.405,16.679h-7.783
		V162.046L139.399,162.046z M116.882,256.84h22.517v-42.813h9.452c24.186,0,43.089-9.449,43.089-35.58
		c0-26.964-22.241-33.916-46.703-33.916h-28.355V256.84L116.882,256.84z"/>
	<path fill="#686868" d="M205.282,174h20.293v11.118h0.278c6.949-9.452,16.122-13.066,27.243-13.066
		c19.736,0,28.355,13.899,28.355,32.526v52.262h-21.684v-44.199c0-10.287-0.276-23.91-13.899-23.91
		c-15.568,0-19.182,16.956-19.182,27.519v40.587h-21.405V174L205.282,174z"/>
	<path fill="#686868" d="M325.097,162.046h7.783c11.675,0,21.405,4.726,21.405,17.791c0,12.787-10.009,16.679-21.405,16.679h-7.783
		V162.046L325.097,162.046z M302.58,256.84h22.517v-42.813h9.452c24.186,0,43.368-9.449,43.368-35.58
		c0-26.964-22.517-33.916-46.982-33.916H302.58L302.58,256.84L302.58,256.84z"/>
	<polygon fill="#686868" points="379.026,146.478 375.693,146.478 375.693,145.088 384.033,145.088 384.033,146.478 
		380.416,146.478 380.416,155.93 379.026,155.93 	"/>
	<polygon fill="#686868" points="385.421,155.93 387.09,155.93 387.09,146.478 387.09,146.478 390.701,155.93 392.092,155.93 
		395.708,146.478 395.708,146.478 395.708,155.93 397.375,155.93 397.375,145.088 394.872,145.088 391.258,153.985 387.923,145.088 
		385.421,145.088 	"/>
	<path fill="#686868" d="M344.277,142.307c6.118-30.302-10.285-50.039-49.481-50.596c-40.03-0.833-94.794,18.348-146.778,48.927
		c47.815-23.072,96.463-36.973,134.826-36.416C320.372,105.056,340.941,119.233,344.277,142.307L344.277,142.307z"/>
	<path fill="#686868" d="M21.252,257.121c-6.395,30.3,10.009,50.036,49.205,51.146c39.751,1.114,94.794-17.513,147.335-47.256
		c-48.093,22.517-97.018,35.859-135.381,34.749C44.881,294.647,24.59,280.191,21.252,257.121L21.252,257.121z"/>
</g>
</svg>
